<svg xmlns="http://www.w3.org/2000/svg" width="16.5" height="16.5" viewBox="0 0 16.5 16.5">
  <path id="Icon_awesome-linkedin" data-name="Icon awesome-linkedin" d="M15.321,2.25H1.175A1.184,1.184,0,0,0,0,3.44V17.56a1.184,1.184,0,0,0,1.175,1.19H15.321A1.187,1.187,0,0,0,16.5,17.56V3.44A1.187,1.187,0,0,0,15.321,2.25ZM4.987,16.393H2.541V8.519H4.991v7.874ZM3.764,7.443A1.418,1.418,0,1,1,5.182,6.025,1.419,1.419,0,0,1,3.764,7.443Zm10.39,8.95H11.708v-3.83c0-.913-.018-2.088-1.271-2.088-1.274,0-1.47.994-1.47,2.022v3.9H6.523V8.519H8.869V9.594H8.9a2.576,2.576,0,0,1,2.317-1.271c2.475,0,2.935,1.632,2.935,3.753Z" transform="translate(0 -2.25)" fill="#f05a22"/>
</svg>