<svg xmlns="http://www.w3.org/2000/svg" width="17" height="17" viewBox="0 0 17 17">
  <g id="Group_62" data-name="Group 62" transform="translate(-1729 -30)">
    <rect id="Rectangle_120" data-name="Rectangle 120" width="17" height="17" rx="2" transform="translate(1729 30)" fill="#f05a22"/>
    <path id="Icon_awesome-instagram" data-name="Icon awesome-instagram" d="M5.418,4.879A2.78,2.78,0,1,0,8.2,7.658,2.775,2.775,0,0,0,5.418,4.879Zm0,4.587A1.807,1.807,0,1,1,7.225,7.658,1.81,1.81,0,0,1,5.418,9.465Zm3.542-4.7a.648.648,0,1,1-.648-.648A.647.647,0,0,1,8.959,4.765Zm1.841.658a3.208,3.208,0,0,0-.876-2.272,3.229,3.229,0,0,0-2.272-.876c-.9-.051-3.578-.051-4.473,0a3.225,3.225,0,0,0-2.272.873A3.219,3.219,0,0,0,.033,5.421c-.051.9-.051,3.578,0,4.473a3.208,3.208,0,0,0,.876,2.272,3.234,3.234,0,0,0,2.272.876c.9.051,3.578.051,4.473,0a3.208,3.208,0,0,0,2.272-.876A3.229,3.229,0,0,0,10.8,9.894c.051-.9.051-3.575,0-4.471ZM9.644,10.854a1.83,1.83,0,0,1-1.031,1.031,11.948,11.948,0,0,1-3.2.218,12.041,12.041,0,0,1-3.2-.218,1.83,1.83,0,0,1-1.031-1.031,11.948,11.948,0,0,1-.218-3.2,12.041,12.041,0,0,1,.218-3.2A1.83,1.83,0,0,1,2.222,3.432a11.948,11.948,0,0,1,3.2-.218,12.041,12.041,0,0,1,3.2.218A1.83,1.83,0,0,1,9.644,4.463a11.948,11.948,0,0,1,.218,3.2A11.941,11.941,0,0,1,9.644,10.854Z" transform="translate(1732.005 30.762)" fill="#fff"/>
  </g>
</svg>