<svg xmlns="http://www.w3.org/2000/svg" width="12.375" height="16.5" viewBox="0 0 12.375 16.5">
  <path id="Icon_awesome-clipboard-list" data-name="Icon awesome-clipboard-list" d="M10.828,2.063H8.25a2.063,2.063,0,0,0-4.125,0H1.547A1.547,1.547,0,0,0,0,3.609V14.953A1.547,1.547,0,0,0,1.547,16.5h9.281a1.547,1.547,0,0,0,1.547-1.547V3.609A1.547,1.547,0,0,0,10.828,2.063Zm-7.734,11.6a.773.773,0,1,1,.773-.773A.772.772,0,0,1,3.094,13.664Zm0-3.094A.773.773,0,1,1,3.867,9.8.772.772,0,0,1,3.094,10.57Zm0-3.094A.773.773,0,1,1,3.867,6.7.772.772,0,0,1,3.094,7.477ZM6.188,1.289a.773.773,0,1,1-.773.773A.772.772,0,0,1,6.188,1.289Zm4.125,11.859a.259.259,0,0,1-.258.258H5.414a.259.259,0,0,1-.258-.258v-.516a.259.259,0,0,1,.258-.258h4.641a.259.259,0,0,1,.258.258Zm0-3.094a.259.259,0,0,1-.258.258H5.414a.259.259,0,0,1-.258-.258V9.539a.259.259,0,0,1,.258-.258h4.641a.259.259,0,0,1,.258.258Zm0-3.094a.259.259,0,0,1-.258.258H5.414a.259.259,0,0,1-.258-.258V6.445a.259.259,0,0,1,.258-.258h4.641a.259.259,0,0,1,.258.258Z" fill="#fff"/>
</svg>