<svg xmlns="http://www.w3.org/2000/svg" width="16.5" height="16.5" viewBox="0 0 16.5 16.5">
  <path id="Icon_awesome-facebook-square" data-name="Icon awesome-facebook-square" d="M14.732,2.25H1.768A1.768,1.768,0,0,0,0,4.018V16.982A1.768,1.768,0,0,0,1.768,18.75H6.823V13.14H4.5V10.5h2.32V8.488a3.223,3.223,0,0,1,3.45-3.553,14.057,14.057,0,0,1,2.045.178V7.359H11.166A1.32,1.32,0,0,0,9.677,8.786V10.5H12.21l-.405,2.64H9.677v5.61h5.055A1.768,1.768,0,0,0,16.5,16.982V4.018A1.768,1.768,0,0,0,14.732,2.25Z" transform="translate(0 -2.25)" fill="#f05a22"/>
</svg>