<svg xmlns="http://www.w3.org/2000/svg" width="16.5" height="16.5" viewBox="0 0 16.5 16.5">
  <path id="Icon_awesome-twitter-square" data-name="Icon awesome-twitter-square" d="M14.732,2.25H1.768A1.768,1.768,0,0,0,0,4.018V16.982A1.768,1.768,0,0,0,1.768,18.75H14.732A1.768,1.768,0,0,0,16.5,16.982V4.018A1.768,1.768,0,0,0,14.732,2.25ZM12.931,8.1c.007.1.007.21.007.313a6.826,6.826,0,0,1-6.873,6.873A6.841,6.841,0,0,1,2.357,14.2a5.089,5.089,0,0,0,.582.029,4.843,4.843,0,0,0,3-1.031,2.419,2.419,0,0,1-2.258-1.676,2.6,2.6,0,0,0,1.09-.044A2.416,2.416,0,0,1,2.836,9.108V9.078a2.414,2.414,0,0,0,1.09.306A2.41,2.41,0,0,1,2.851,7.373a2.385,2.385,0,0,1,.328-1.219A6.859,6.859,0,0,0,8.158,8.681a2.421,2.421,0,0,1,4.121-2.206,4.733,4.733,0,0,0,1.532-.582,2.409,2.409,0,0,1-1.061,1.33,4.807,4.807,0,0,0,1.392-.376A5.084,5.084,0,0,1,12.931,8.1Z" transform="translate(0 -2.25)" fill="#f05a22"/>
</svg>