<svg xmlns="http://www.w3.org/2000/svg" width="18.563" height="16.5" viewBox="0 0 18.563 16.5">
  <path id="Icon_metro-shop" data-name="Icon metro-shop" d="M9.4,10.041l.816-5.414H5.969L4.2,9.268a1.627,1.627,0,0,0-.084.516,2.413,2.413,0,0,0,2.651,2.063,2.515,2.515,0,0,0,2.632-1.8Zm4,1.8a2.414,2.414,0,0,0,2.651-2.062c0-.042,0-.085-.005-.125l-.525-5.031H11.273l-.526,5.027c0,.042,0,.085,0,.129a2.414,2.414,0,0,0,2.651,2.062Zm5.156,1.079V17H8.238V12.931a4.339,4.339,0,0,1-1.474.256,4.252,4.252,0,0,1-.589-.051v6.547a1.447,1.447,0,0,0,1.442,1.444H19.169a1.449,1.449,0,0,0,1.444-1.444V13.137a4.431,4.431,0,0,1-.589.051A4.285,4.285,0,0,1,18.551,12.925Zm4.042-3.657L20.818,4.627H16.577l.815,5.406a2.509,2.509,0,0,0,2.633,1.813,2.414,2.414,0,0,0,2.651-2.062A1.656,1.656,0,0,0,22.593,9.268Z" transform="translate(-4.113 -4.627)" fill="#fff"/>
</svg>