<svg xmlns="http://www.w3.org/2000/svg" width="293" height="238.542" viewBox="0 0 293 238.542">
  <g id="Group_66" data-name="Group 66" transform="translate(-440.508 -249.459)">
    <path id="Path_137" data-name="Path 137" d="M-258861.187-9875.668H-258872V-9985h10.813Z" transform="translate(259452.938 10359.781)" fill="#e25b29"/>
    <path id="Path_138" data-name="Path 138" d="M-258861.187-9981.11H-258872V-9985h10.813Z" transform="translate(259452.938 10359.781)" fill="#ce3b04"/>
    <path id="Path_139" data-name="Path 139" d="M-258878.25-10238.269v52.289l-36.719,36.732h-51.875l-37.156-36.732v-52.289l37.156-36.731h51.875Z" transform="translate(259527.906 10524.459)" fill="#e25b29"/>
    <path id="Path_140" data-name="Path 140" d="M-258861.781-10216.121v52.289l-36.719,36.732h-51.875l-24.625-24.632c92.5,13.828,93.344-84.269,93.344-84.269Z" transform="translate(259511.438 10502.313)" fill="#d54711"/>
    <path id="Path_141" data-name="Path 141" d="M-258829.422-10129s-17.7,65.686-88.578,62.66h51.859l36.719-36.731Z" transform="translate(259479.063 10441.551)" fill="#ce3b04"/>
    <path id="Path_142" data-name="Path 142" d="M-258876.172-10229.429v47.535l-.437.433-33.281,33.275-.422.432h-47.969v-.432l-33.281-33.275-.437-.433v-47.967l.438-.433,33.281-33.274v-.433h47.969l.422.433,33.281,33.274.438.433Zm-2.172,46.672V-10229l-32.828-32.41h-45.812l-32.859,32.41v46.24l32.859,32.41h45.813Z" transform="translate(259521.094 10518.213)" fill="#fff"/>
    <path id="Path_143" data-name="Path 143" d="M-258852.687-9875.668h-4.328V-9985h4.328Z" transform="translate(259444.438 10359.781)" fill="#ce3b04"/>
    <g id="_2508195506704" transform="translate(550.266 296.563)">
      <path id="Path_144" data-name="Path 144" d="M-258920.094-10146.121c-.875,0-1.719-.434-2.594-.434h-.875v-15.556c0-2.594-.875-3.89-3.437-3.89-.437,0-.875.432-1.75.864a25.321,25.321,0,0,1-1.719,2.16l-10.812,14.262c0,.432-.406.863-.406,1.3-.437,0-.437.432-.875.863a1.509,1.509,0,0,0-.437.865v.864a6.09,6.09,0,0,0,.875,2.593,6.147,6.147,0,0,0,3.031.864h9.938v3.457a4.582,4.582,0,0,0,.844,2.593,3.343,3.343,0,0,0,2.156.864,2.164,2.164,0,0,0,1.719-.864c.875-.863.875-1.3.875-2.593v-3.457h1.313a3.343,3.343,0,0,0,2.156-.864c.875-.433.875-.864.875-1.729A3.277,3.277,0,0,0-258920.094-10146.121Zm-9.062-11.236h0v10.8h-8.219Z" transform="translate(258943 10166)" fill="#fff"/>
      <path id="Path_145" data-name="Path 145" d="M-258864.734-10162.407a17.9,17.9,0,0,0-3.016-2.16,11.913,11.913,0,0,0-3.891-.433,8.683,8.683,0,0,0-5.609,1.729c-1.719.864-2.578,2.161-3.469,4.321-.422,1.3-.859,2.593-1.281,4.321v9.94c.422,1.3.422,2.592.859,3.889a8.789,8.789,0,0,0,3.891,4.754,9.1,9.1,0,0,0,5.609,2.16,8.253,8.253,0,0,0,5.188-1.729,12.9,12.9,0,0,0,3.469-3.457,15.741,15.741,0,0,0,1.719-4.754c0-1.3.453-3.457.453-5.618,0-3.889-.453-7.346-1.75-9.507A8.989,8.989,0,0,0-258864.734-10162.407Zm-11.2,19.015h0c0-1.729-.453-3.89-.453-6.051,0-3.889.453-6.914,1.313-8.643a3.254,3.254,0,0,1,3.438-2.593,3.931,3.931,0,0,1,3.031,1.3,29.891,29.891,0,0,1,1.3,3.458,24.428,24.428,0,0,1,.438,6.05,28.275,28.275,0,0,1-.437,6.482,29.8,29.8,0,0,1-1.3,3.457,3.928,3.928,0,0,1-3.031,1.3,2.609,2.609,0,0,1-2.578-1.3A6.363,6.363,0,0,1-258875.937-10143.393Z" transform="translate(258908.359 10165.432)" fill="#fff"/>
      <path id="Path_146" data-name="Path 146" d="M-258805.094-10146.121c-.859,0-1.734-.434-2.594-.434h-.859v-15.556c0-2.594-1.3-3.89-3.469-3.89a3.194,3.194,0,0,0-1.719.864c-.437.432-.859,1.3-1.75,2.16l-10.8,14.262c-.422.432-.422.863-.859,1.3a1.518,1.518,0,0,0-.422.863,1.509,1.509,0,0,0-.437.865v.864a3.187,3.187,0,0,0,.859,2.593,6.2,6.2,0,0,0,3.031.864h9.938v3.457a4.707,4.707,0,0,0,.859,2.593,3.309,3.309,0,0,0,2.156.864,2.247,2.247,0,0,0,1.734-.864,4.592,4.592,0,0,0,.875-2.593v-3.457h.859a3.663,3.663,0,0,0,2.594-.864,2.226,2.226,0,0,0,.859-1.729A3.269,3.269,0,0,0-258805.094-10146.121Zm-9.078-11.236h0v10.8h-8.219Z" transform="translate(258877.703 10166)" fill="#fff"/>
    </g>
    <g id="_2508195504336" transform="translate(440.5 483.68)">
      <path id="Path_147" data-name="Path 147" d="M-258888.219-9728.679h-162.062a1.984,1.984,0,0,1-1.719-2.16h0a1.985,1.985,0,0,1,1.719-2.161h162.063a2.046,2.046,0,0,1,2.156,2.161h0A2.046,2.046,0,0,1-258888.219-9728.679Z" transform="translate(259114.656 9733)" fill="#ce3b04"/>
      <path id="Path_148" data-name="Path 148" d="M-259077.484-9728.679h-26.344a2.042,2.042,0,0,1-2.172-2.16h0a2.042,2.042,0,0,1,2.172-2.161h26.344a1.985,1.985,0,0,1,1.734,2.161h0A1.984,1.984,0,0,1-259077.484-9728.679Z" transform="translate(259145.328 9733)" fill="#ce3b04"/>
      <path id="Path_149" data-name="Path 149" d="M-259167.625-9728.679h-27.656a1.984,1.984,0,0,1-1.719-2.16h0a1.985,1.985,0,0,1,1.719-2.161h27.656a2.054,2.054,0,0,1,2.188,2.161h0A2.054,2.054,0,0,1-259167.625-9728.679Z" transform="translate(259197 9733)" fill="#ce3b04"/>
      <path id="Path_150" data-name="Path 150" d="M-258624.375-9728.679h-22.469a2.046,2.046,0,0,1-2.156-2.16h0a2.046,2.046,0,0,1,2.156-2.161h22.469a2.03,2.03,0,0,1,2.156,2.161h0A2.029,2.029,0,0,1-258624.375-9728.679Z" transform="translate(258885.813 9733)" fill="#ce3b04"/>
      <path id="Path_151" data-name="Path 151" d="M-258548.562-9728.679h-17.266a2.042,2.042,0,0,1-2.172-2.16h0a2.042,2.042,0,0,1,2.172-2.161h17.266a1.985,1.985,0,0,1,1.75,2.161h0A1.984,1.984,0,0,1-258548.562-9728.679Z" transform="translate(258839.828 9733)" fill="#ce3b04"/>
    </g>
    <path id="Path_152" data-name="Path 152" d="M-258984.531-9865.276H-259042l1.281-3.889,2.172-7.346.859-4.754,2.156-6.482,3.469-12.532,1.734-6.482,12.531-46.238h9.078l4.75,16.854,7.781,29.385,1.719,6.482,3.891,12.532,1.734,6.482,3.031,12.1Z" transform="translate(259549.5 10341.609)" fill="#e25b29"/>
    <path id="Path_153" data-name="Path 153" d="M-258984.531-9843.129H-259042l1.281-3.889,2.172-7.347c39.766-2.594,34.578-59.636,34.578-59.636l18.156,66.982Z" transform="translate(259549.5 10319.461)" fill="#d54711"/>
    <path id="Path_154" data-name="Path 154" d="M-258988.187-9742.654H-259069V-9750h80.813Z" transform="translate(259564.813 10226.332)" fill="#d54711"/>
    <path id="Path_155" data-name="Path 155" d="M-258984.531-9755.11H-259042l1.281-3.89h54.906Z" transform="translate(259549.5 10231.443)" fill="#e25b29"/>
    <path id="Path_156" data-name="Path 156" d="M-258971.187-9831s-.875,25.064-29.812,31.114h38.469Z" transform="translate(259526.188 10272.33)" fill="#ce3b04"/>
    <path id="Path_157" data-name="Path 157" d="M-258981.406-9839.518H-259019l1.719-6.482h34.156Z" transform="translate(259536.438 10280.848)" fill="#fff"/>
    <path id="Path_158" data-name="Path 158" d="M-258983.156-9795.519H-259032l2.188-6.481h44.938Z" transform="translate(259543.813 10255.863)" fill="#fff"/>
    <path id="Path_159" data-name="Path 159" d="M-258991.453-9750s-10.8,7.779-50.547,7.346h69.141V-9750Z" transform="translate(259549.5 10226.332)" fill="#ce3b04"/>
  </g>
</svg>